<svg width="319" height="43" viewBox="0 0 319 43" fill="none" xmlns="http://www.w3.org/2000/svg">
<path d="M11.528 31.688C9.32 31.664 7.58 31.184 6.308 30.248C5.036 29.312 4.4 27.884 4.4 25.964V20.672C4.4 19.448 4.016 18.584 3.248 18.08C2.504 17.552 1.424 17.288 0.00800003 17.288V14.66C1.424 14.636 2.504 14.372 3.248 13.868C4.016 13.364 4.4 12.512 4.4 11.312V5.984C4.4 4.064 5.06 2.636 6.38 1.7C7.7 0.763999 9.416 0.295998 11.528 0.295998V2.888C10.28 2.912 9.296 3.188 8.576 3.716C7.88 4.244 7.532 5.096 7.532 6.272V11.456C7.532 13.928 6.224 15.392 3.608 15.848V16.064C6.224 16.52 7.532 17.984 7.532 20.456V25.748C7.532 26.924 7.88 27.764 8.576 28.268C9.272 28.796 10.256 29.072 11.528 29.096V31.688ZM44.2348 25.712V23.696L39.8068 25.712H28.8988C29.9788 25.424 30.7708 24.452 30.8788 23.3V3.572C30.8788 2.096 29.2948 0.872 27.3148 0.872H23.8588C25.8028 0.872 26.4508 2.096 26.4508 3.572V23.336C26.4508 24.812 25.8028 26 23.8588 26H44.2348V25.712ZM63.0013 23.336V11.456C63.0013 9.98 61.4173 8.756 59.4373 8.756H55.9813C57.9253 8.756 58.5733 9.98 58.5733 11.456V18.008C58.5733 22.508 50.7613 26.036 50.7613 20.6V11.456C50.7253 9.98 49.1413 8.756 47.1973 8.756H43.7412C45.6853 8.756 46.2973 9.98 46.2973 11.456V20.6C46.2973 29.78 58.5733 26.18 58.5733 18.296V23.336C58.5733 24.812 60.1573 26.036 62.1373 26.036H65.5933C63.6493 26.036 63.0013 24.812 63.0013 23.336ZM71.7855 23.336V11.456C71.7855 9.98 70.2015 8.756 68.2215 8.756H64.7655C66.7095 8.756 67.3575 9.98 67.3575 11.456V23.336C67.3575 24.812 68.9415 26.036 70.8855 26.036H74.3775C72.3975 26.036 71.7855 24.812 71.7855 23.336ZM69.5535 6.632C69.5175 5.3 70.4535 4.148 71.7855 3.896C70.4535 3.644 69.5175 2.492 69.5535 1.16C69.5895 2.492 68.6535 3.644 67.3575 3.896C68.6535 4.148 69.5895 5.3 69.5535 6.632ZM91.1434 8.756C91.1074 8.756 91.0714 8.756 91.0354 8.792H76.5274V11.096L80.9554 9.044H89.3794C83.6554 10.952 79.6234 21.572 75.5914 21.572V26.144H90.1714V23.696L85.7074 25.712V25.856H77.0674C84.0874 24.452 86.8594 13.22 91.1434 13.22V8.756ZM108.197 23.3V11.492C108.197 9.98 106.613 8.792 104.669 8.792H100.133C94.8767 8.792 94.8767 10.952 94.8767 13.58L99.3047 11.096C99.2687 10.52 99.4847 9.908 99.8807 9.476C100.277 9.044 100.853 8.792 101.429 8.792C101.753 8.828 102.041 8.864 102.329 8.972C102.905 9.224 103.373 9.692 103.589 10.304C103.589 10.304 103.589 10.34 103.625 10.376C103.625 10.448 103.661 10.52 103.661 10.628C103.733 10.916 103.769 11.168 103.769 11.456V11.492V16.676C99.3407 11.096 90.4847 16.784 93.0407 22.868C93.6527 24.776 95.4167 26.036 97.3967 26C98.3327 26 99.2327 25.784 100.097 25.424C101.789 24.56 102.401 21.716 103.769 23.048V23.3C103.769 24.812 105.353 26 107.333 26H110.789C108.845 26 108.197 24.812 108.197 23.3ZM103.769 23.012C103.805 22.652 103.661 22.292 103.409 22.04C103.157 21.788 102.761 21.68 102.401 21.716C100.457 21.824 98.9807 23.804 97.1807 21.32C95.0927 18.476 99.3047 12.248 103.769 16.784V23.012ZM132.46 0.872H122.2C124.144 0.872 124.792 2.096 124.792 3.572V23.336C124.792 24.812 124.144 26.036 122.2 26.036H132.46C136.996 26.072 141.172 23.66 143.44 19.772C145.708 15.884 145.708 11.06 143.44 7.136C141.172 3.248 136.996 0.835998 132.46 0.907999V0.872ZM127.24 25.712C128.32 25.424 129.112 24.452 129.22 23.3V3.572C129.112 2.456 128.356 1.484 127.24 1.196H132.46C136.96 1.232 138.724 6.704 138.76 13.508C138.76 20.348 136.996 25.748 132.46 25.712H127.24ZM152.68 16.496V11.456C152.68 9.98 151.096 8.756 149.116 8.756H145.66C147.604 8.756 148.252 9.98 148.252 11.456V23.336C148.252 24.812 149.836 26.036 151.78 26.036H155.272C153.292 26.036 152.68 24.812 152.68 23.336V16.784C152.68 12.284 160.492 8.756 160.492 14.192V16.676L164.92 14.192C164.92 5.012 152.68 8.612 152.68 16.496ZM181.005 23.3V11.492C181.005 9.98 179.421 8.792 177.477 8.792H172.941C167.685 8.792 167.685 10.952 167.685 13.58L172.113 11.096C172.077 10.52 172.293 9.908 172.689 9.476C173.085 9.044 173.661 8.792 174.237 8.792C174.561 8.828 174.849 8.864 175.137 8.972C175.713 9.224 176.181 9.692 176.397 10.304C176.397 10.304 176.397 10.34 176.433 10.376C176.433 10.448 176.469 10.52 176.469 10.628C176.541 10.916 176.577 11.168 176.577 11.456V11.492V16.676C172.149 11.096 163.293 16.784 165.849 22.868C166.461 24.776 168.225 26.036 170.205 26C171.141 26 172.041 25.784 172.905 25.424C174.597 24.56 175.209 21.716 176.577 23.048V23.3C176.577 24.812 178.161 26 180.141 26H183.597C181.653 26 181.005 24.812 181.005 23.3ZM176.577 23.012C176.613 22.652 176.469 22.292 176.217 22.04C175.965 21.788 175.569 21.68 175.209 21.716C173.265 21.824 171.789 23.804 169.989 21.32C167.901 18.476 172.113 12.248 176.577 16.784V23.012ZM198.262 26.684C193.582 26.684 192.25 27.584 189.118 27.584C185.482 27.584 187.282 25.172 187.966 24.344C190.09 25.856 192.754 26.396 195.274 25.784C199.99 24.776 203.014 20.132 201.97 15.416C201.538 13.544 200.494 11.888 198.982 10.7L199.306 10.304L202.906 7.712H200.17L198.982 10.232L198.766 10.52C196.642 8.936 193.942 8.396 191.386 9.008C186.67 10.016 183.682 14.66 184.69 19.412C185.122 21.284 186.202 22.976 187.75 24.164L187.534 24.416C186.778 25.244 186.094 26.144 185.554 27.116C184.726 28.592 184.51 30.752 187.102 31.256C185.482 32.372 184.546 34.244 184.618 36.224C184.87 41.408 195.13 42.308 199.378 39.716C206.794 35.18 204.454 26.684 198.262 26.684ZM197.65 16.388C198.694 20.888 197.578 24.956 195.202 25.532C193.438 25.928 191.458 24.308 190.126 21.644L196.678 13.544C197.11 14.48 197.434 15.416 197.65 16.388ZM189.01 18.404C187.966 13.94 189.046 9.836 191.458 9.296C193.222 8.9 195.202 10.52 196.534 13.256L190.018 21.356C189.55 20.42 189.226 19.412 189.01 18.404ZM189.694 40.292C187.894 40.04 185.482 38.888 184.978 36.692C184.69 34.568 185.662 32.48 187.498 31.364C193.474 32.048 200.206 28.268 200.674 33.596C201.358 41.768 192.106 40.652 189.694 40.292ZM222.011 15.38C221.291 11.852 218.519 9.08 214.955 8.396C211.427 7.748 207.791 9.296 205.847 12.32C203.867 15.344 203.975 19.268 206.027 22.22C208.115 25.208 211.787 26.612 215.315 25.784C220.031 24.776 223.019 20.132 222.011 15.38ZM215.207 25.496C212.831 26.072 210.059 22.868 209.015 18.404C207.971 13.904 209.087 9.836 211.463 9.296C213.875 8.72 216.647 11.924 217.691 16.388C218.699 20.888 217.619 24.956 215.207 25.496ZM215.531 16.892C214.199 17.072 213.011 15.74 212.651 14.3C212.939 15.74 212.471 17.468 211.211 17.9C212.507 17.684 213.695 19.052 214.091 20.456C213.767 19.016 214.271 17.288 215.531 16.892ZM242.088 23.336V14.192C242.088 5.012 229.848 8.612 229.848 16.496V11.456C229.848 9.98 228.264 8.756 226.284 8.756H222.828C224.772 8.756 225.42 9.98 225.42 11.456V23.336C225.42 24.812 227.004 26.036 228.948 26.036H232.44C230.46 26.036 229.848 24.812 229.848 23.336V16.784C229.848 12.284 237.66 8.756 237.66 14.192V23.336C237.66 24.812 239.244 26.036 241.188 26.036H244.68C242.736 26.036 242.088 24.812 242.088 23.336ZM256.199 25.496C254.183 25.964 251.879 23.732 250.583 20.312L262.427 13.688L262.319 13.544C260.411 9.296 255.515 7.244 251.159 8.9C246.803 10.52 244.463 15.272 245.795 19.736C247.163 24.2 251.735 26.864 256.271 25.784C258.719 25.244 260.771 23.696 262.031 21.572L259.043 19.88C259.007 22.832 257.963 25.1 256.199 25.496ZM250.007 18.404C248.963 13.904 250.079 9.836 252.455 9.296C254.687 8.756 257.279 11.528 258.431 15.596L250.475 20.024C250.295 19.484 250.115 18.944 250.007 18.404ZM269.498 8.756V1.16C267.05 1.16 265.07 3.176 265.07 5.624V8.756H260.642V9.044H265.07V23.3C265.07 24.776 266.654 26 268.634 26H272.09C270.146 26 269.498 24.776 269.498 23.3V9.044H269.534L273.962 11.096V8.756H269.498ZM280.572 8.756V1.16C278.124 1.16 276.144 3.176 276.144 5.624V8.756H271.716V9.044H276.144V23.3C276.144 24.776 277.728 26 279.708 26H283.164C281.22 26 280.572 24.776 280.572 23.3V9.044H280.608L285.036 11.096V8.756H280.572ZM291.934 23.336V11.456C291.934 9.98 290.35 8.756 288.37 8.756H284.914C286.858 8.756 287.506 9.98 287.506 11.456V23.336C287.506 24.812 289.09 26.036 291.034 26.036H294.526C292.546 26.036 291.934 24.812 291.934 23.336ZM289.702 6.632C289.666 5.3 290.602 4.148 291.934 3.896C290.602 3.644 289.666 2.492 289.702 1.16C289.738 2.492 288.802 3.644 287.506 3.896C288.802 4.148 289.738 5.3 289.702 6.632ZM307.031 29.096C308.279 29.048 309.251 28.76 309.947 28.232C310.667 27.728 311.027 26.888 311.027 25.712V20.492C311.027 18.02 312.335 16.556 314.951 16.1V15.884C312.335 15.428 311.027 13.964 311.027 11.492V6.236C311.027 5.06 310.679 4.22 309.983 3.716C309.287 3.188 308.303 2.912 307.031 2.888V0.295998C309.239 0.319998 310.979 0.799998 312.251 1.736C313.523 2.672 314.159 4.1 314.159 6.02V11.276C314.159 12.5 314.531 13.376 315.275 13.904C316.043 14.408 317.135 14.66 318.551 14.66V17.288C317.135 17.312 316.043 17.576 315.275 18.08C314.531 18.584 314.159 19.436 314.159 20.636V26C314.159 27.896 313.499 29.312 312.179 30.248C310.859 31.208 309.143 31.688 307.031 31.688V29.096Z" fill="#093F73"/>
</svg>
